# xmcd CD database file
#
# Track frame offsets:
#	150
#	9255
#	25117
#	35252
#	51037
#	60638
#	74531
#	89096
#	109499
#	122337
#	142604
#	163746
#	175323
#	189255
#	203103
#	216600
#	226864
#	235942
#	244949
#	258055
#	270562
#	283233
#	296875
#	308737
#	318726
#
# Disc length: 4402 seconds
#
# Revision: 0
# Processed by: cddbd v1.5.2PL0 Copyright (c) Steve Scherf et al.
# Submitted via: CDex 1.70beta2
#
DISCID=6f113019
DTITLE=Bystřické banjo - CD-01
DYEAR=2003
DGENRE=Country
TTITLE0=Zrádný banjo
TTITLE1=Píseň severu
TTITLE2=Pět dnů
TTITLE3=Tuláku kam kráčíš
TTITLE4=Sněžná hora
TTITLE5=Hošík
TTITLE6=Alibaba
TTITLE7=Rezavý klíč
TTITLE8=Garáž
TTITLE9=Píseň prašných cest
TTITLE10=Ať spustí déšť
TTITLE11=Ven se dívej a nespi
TTITLE12=Z města ven
TTITLE13=Písnička o ničem
TTITLE14=Down by thw riversite
TTITLE15=Pochod svatých
TTITLE16=Žádost hrobu
TTITLE17=Dosti sem se nastaral
TTITLE18=Drak od Bílé skály
TTITLE19=Bože můj, otče můj
TTITLE20=Nádherný svět
TTITLE21=Pouštní chrám
TTITLE22=Ö kousek níž
TTITLE23=Staň se
TTITLE24=Můj let
EXTD=YEAR: 2003
EXTT0=
EXTT1=
EXTT2=
EXTT3=
EXTT4=
EXTT5=
EXTT6=
EXTT7=
EXTT8=
EXTT9=
EXTT10=
EXTT11=
EXTT12=
EXTT13=
EXTT14=
EXTT15=
EXTT16=
EXTT17=
EXTT18=
EXTT19=
EXTT20=
EXTT21=
EXTT22=
EXTT23=
EXTT24=
PLAYORDER=
